<svg width="1082" height="1082" viewBox="0 0 1082 1082" fill="none" xmlns="http://www.w3.org/2000/svg">
<path d="M1082 541C1082 839.786 839.786 1082 541 1082C242.214 1082 0 839.786 0 541C0 242.214 242.214 0 541 0C839.786 0 1082 242.214 1082 541Z" fill="#0AFD7F"/>
<mask id="mask0_166_33" style="mask-type:alpha" maskUnits="userSpaceOnUse" x="0" y="0" width="1082" height="1082">
<circle cx="541" cy="541" r="541" fill="#0AFD7F"/>
</mask>
<g mask="url(#mask0_166_33)">
<path d="M729.5 687.5C729.5 687.5 729.5 643.728 759.454 612.059C765.879 605.266 772.166 598.132 775.584 589.429C785.858 563.277 791.5 534.798 791.5 505C791.5 377.422 688.078 274 560.5 274C432.922 274 329.5 377.422 329.5 505C329.5 543.662 317.5 598 290 663.5C291.163 676.542 346.888 665.966 349 678.5C355.723 718.4 362.5 782.5 377.5 794.5C398.121 816.415 461.766 805.5 489.5 805.5C518.988 805.5 530.38 795.547 549.496 743.792C551.518 738.319 552.772 732.561 553.309 726.751L560.5 649" stroke="#002333" stroke-width="31"/>
</g>
<path d="M531.904 497.542V493.763C531.904 483.318 532.763 474.993 534.479 468.788C536.257 462.582 538.831 457.605 542.202 453.857C545.574 450.048 549.681 446.577 554.523 443.443C558.385 440.986 561.818 438.497 564.821 435.978C567.886 433.398 570.307 430.633 572.085 427.684C573.862 424.734 574.751 421.386 574.751 417.638C574.751 414.013 573.893 410.818 572.177 408.053C570.46 405.288 568.101 403.169 565.097 401.694C562.155 400.158 558.875 399.39 555.259 399.39C551.642 399.39 548.24 400.219 545.053 401.878C541.927 403.537 539.352 405.903 537.329 408.975C535.368 411.985 534.356 415.641 534.295 419.942H492C492.184 407.039 495.157 396.472 500.919 388.238C506.742 380.005 514.435 373.923 523.997 369.99C533.56 365.997 544.103 364 555.627 364C568.254 364 579.471 365.966 589.279 369.898C599.148 373.831 606.902 379.637 612.541 387.317C618.18 394.997 621 404.397 621 415.518C621 422.83 619.774 429.281 617.322 434.872C614.87 440.463 611.438 445.409 607.024 449.71C602.672 453.95 597.554 457.82 591.669 461.323C587.072 464.026 583.241 466.852 580.176 469.801C577.172 472.751 574.904 476.13 573.372 479.939C571.84 483.687 571.073 488.295 571.073 493.763V497.542H531.904ZM552.225 558C545.604 558 539.934 555.665 535.215 550.996C530.556 546.326 528.257 540.674 528.319 534.038C528.257 527.525 530.556 521.965 535.215 517.357C539.934 512.687 545.604 510.352 552.225 510.352C558.538 510.352 564.086 512.687 568.867 517.357C573.648 521.965 576.069 527.525 576.13 534.038C576.069 538.462 574.904 542.486 572.636 546.111C570.43 549.736 567.518 552.624 563.902 554.774C560.346 556.925 556.454 558 552.225 558Z" fill="#002333"/>
<path fill-rule="evenodd" clip-rule="evenodd" d="M541 1007C798.365 1007 1007 798.365 1007 541C1007 283.635 798.365 75 541 75C283.635 75 75 283.635 75 541C75 798.365 283.635 1007 541 1007ZM541 1037C814.933 1037 1037 814.933 1037 541C1037 267.067 814.933 45 541 45C267.067 45 45 267.067 45 541C45 814.933 267.067 1037 541 1037Z" fill="#002333"/>
<path fill-rule="evenodd" clip-rule="evenodd" d="M549.5 115.5C553.642 115.5 557 118.858 557 123L557 219C557 223.142 553.642 226.5 549.5 226.5C545.358 226.5 542 223.142 542 219L542 123C542 118.858 545.358 115.5 549.5 115.5Z" fill="#002333"/>
<path fill-rule="evenodd" clip-rule="evenodd" d="M549.5 865.5C553.642 865.5 557 868.858 557 873L557 969C557 973.142 553.642 976.5 549.5 976.5C545.358 976.5 542 973.142 542 969L542 873C542 868.858 545.358 865.5 549.5 865.5Z" fill="#002333"/>
<path fill-rule="evenodd" clip-rule="evenodd" d="M980 546C980 550.143 976.642 553.5 972.5 553.5L876.5 553.5C872.358 553.5 869 550.143 869 546C869 541.858 872.358 538.5 876.5 538.5L972.5 538.5C976.642 538.5 980 541.858 980 546Z" fill="#002333"/>
<path fill-rule="evenodd" clip-rule="evenodd" d="M230 546C230 550.143 226.642 553.5 222.5 553.5L126.5 553.5C122.358 553.5 119 550.143 119 546C119 541.858 122.358 538.5 126.5 538.5L222.5 538.5C226.642 538.5 230 541.858 230 546Z" fill="#002333"/>
<path fill-rule="evenodd" clip-rule="evenodd" d="M853.908 241.591C856.837 244.52 856.837 249.269 853.908 252.198L786.026 320.08C783.097 323.009 778.348 323.009 775.42 320.08C772.491 317.151 772.491 312.402 775.42 309.473L843.302 241.591C846.231 238.662 850.979 238.662 853.908 241.591Z" fill="#002333"/>
<path fill-rule="evenodd" clip-rule="evenodd" d="M323.578 771.921C326.507 774.85 326.507 779.599 323.578 782.528L255.696 850.41C252.767 853.339 248.018 853.339 245.089 850.41C242.161 847.481 242.161 842.732 245.089 839.803L312.972 771.921C315.901 768.992 320.649 768.992 323.578 771.921Z" fill="#002333"/>
<path fill-rule="evenodd" clip-rule="evenodd" d="M826.22 875.782C823.047 878.445 818.316 878.031 815.654 874.858L753.946 801.318C751.284 798.145 751.698 793.414 754.871 790.752C758.044 788.089 762.774 788.503 765.437 791.676L827.145 865.216C829.807 868.389 829.393 873.12 826.22 875.782Z" fill="#002333"/>
<path fill-rule="evenodd" clip-rule="evenodd" d="M344.13 301.249C340.957 303.912 336.226 303.498 333.563 300.325L271.856 226.784C269.193 223.611 269.607 218.881 272.78 216.218C275.953 213.556 280.684 213.97 283.346 217.143L345.054 290.683C347.717 293.856 347.303 298.587 344.13 301.249Z" fill="#002333"/>
</svg>
